<mxfile host="app.diagrams.net" agent="Mozilla/5.0 (Windows NT 10.0; Win64; x64) AppleWebKit/537.36 (KHTML, like Gecko) Chrome/132.0.0.0 Safari/537.36 Edg/132.0.0.0" version="24.8.3">
  <diagram name="Page-1" id="W4Xl7imEFPbeezx7xH5i">
    <mxGraphModel dx="739" dy="457" grid="1" gridSize="10" guides="1" tooltips="1" connect="1" arrows="1" fold="1" page="1" pageScale="1" pageWidth="850" pageHeight="1100" math="0" shadow="0">
      <root>
        <mxCell id="0" />
        <mxCell id="1" parent="0" />
        <mxCell id="E2VKmL75WkODGK42_ocb-1" value="Extention" style="rounded=0;whiteSpace=wrap;html=1;fillColor=#fff2cc;strokeColor=#d6b656;" vertex="1" parent="1">
          <mxGeometry x="30" y="250" width="60" height="60" as="geometry" />
        </mxCell>
        <mxCell id="E2VKmL75WkODGK42_ocb-2" value="&lt;ul&gt;&lt;li&gt;Search Query&lt;/li&gt;&lt;li style=&quot;text-align: left;&quot;&gt;URL&lt;/li&gt;&lt;/ul&gt;" style="rounded=0;whiteSpace=wrap;html=1;fillColor=#d5e8d4;strokeColor=#82b366;" vertex="1" parent="1">
          <mxGeometry y="330" width="140" height="60" as="geometry" />
        </mxCell>
        <mxCell id="E2VKmL75WkODGK42_ocb-3" value="" style="endArrow=classic;html=1;rounded=0;exitX=1;exitY=0.5;exitDx=0;exitDy=0;" edge="1" parent="1" source="E2VKmL75WkODGK42_ocb-1">
          <mxGeometry width="50" height="50" relative="1" as="geometry">
            <mxPoint x="360" y="270" as="sourcePoint" />
            <mxPoint x="260" y="280" as="targetPoint" />
          </mxGeometry>
        </mxCell>
        <mxCell id="E2VKmL75WkODGK42_ocb-5" value="User Id" style="ellipse;whiteSpace=wrap;html=1;fillColor=#dae8fc;strokeColor=#6c8ebf;" vertex="1" parent="1">
          <mxGeometry x="10" y="180" width="90" height="50" as="geometry" />
        </mxCell>
        <mxCell id="E2VKmL75WkODGK42_ocb-8" value="1" style="ellipse;whiteSpace=wrap;html=1;" vertex="1" parent="1">
          <mxGeometry x="120" y="260" width="40" height="40" as="geometry" />
        </mxCell>
        <mxCell id="E2VKmL75WkODGK42_ocb-12" value="2.Accept Request" style="rounded=0;whiteSpace=wrap;html=1;" vertex="1" parent="1">
          <mxGeometry x="260" y="190" width="180" height="40" as="geometry" />
        </mxCell>
        <mxCell id="E2VKmL75WkODGK42_ocb-13" value="3.Extract Content from URL" style="rounded=0;whiteSpace=wrap;html=1;" vertex="1" parent="1">
          <mxGeometry x="261" y="237" width="180" height="40" as="geometry" />
        </mxCell>
        <mxCell id="E2VKmL75WkODGK42_ocb-14" value="Sentiment (Neutral, Negative, Positive)&lt;div&gt;&amp;amp;&lt;/div&gt;&lt;div&gt;Summarized Content&lt;/div&gt;" style="rounded=0;whiteSpace=wrap;html=1;fillColor=#e1d5e7;strokeColor=#9673a6;" vertex="1" parent="1">
          <mxGeometry x="259" y="285" width="180" height="65" as="geometry" />
        </mxCell>
        <mxCell id="E2VKmL75WkODGK42_ocb-15" value="&lt;font size=&quot;1&quot; style=&quot;&quot;&gt;&lt;b style=&quot;font-size: 9px;&quot;&gt;WebbaseLoader&lt;/b&gt;&lt;/font&gt;" style="rounded=1;whiteSpace=wrap;html=1;" vertex="1" parent="1">
          <mxGeometry x="460" y="247" width="90" height="20" as="geometry" />
        </mxCell>
        <mxCell id="E2VKmL75WkODGK42_ocb-16" value="" style="endArrow=classic;startArrow=classic;html=1;rounded=0;entryX=0;entryY=0.5;entryDx=0;entryDy=0;" edge="1" parent="1" target="E2VKmL75WkODGK42_ocb-15">
          <mxGeometry width="50" height="50" relative="1" as="geometry">
            <mxPoint x="440" y="257" as="sourcePoint" />
            <mxPoint x="410" y="220" as="targetPoint" />
          </mxGeometry>
        </mxCell>
        <mxCell id="E2VKmL75WkODGK42_ocb-18" value="" style="endArrow=classic;html=1;rounded=0;" edge="1" parent="1">
          <mxGeometry relative="1" as="geometry">
            <mxPoint x="440" y="310" as="sourcePoint" />
            <mxPoint x="630" y="310" as="targetPoint" />
          </mxGeometry>
        </mxCell>
        <mxCell id="E2VKmL75WkODGK42_ocb-19" value="5. for Negative Sentiment&lt;div&gt;with High Score&lt;/div&gt;" style="edgeLabel;resizable=0;html=1;;align=center;verticalAlign=middle;" connectable="0" vertex="1" parent="E2VKmL75WkODGK42_ocb-18">
          <mxGeometry relative="1" as="geometry" />
        </mxCell>
        <mxCell id="E2VKmL75WkODGK42_ocb-22" value="Notify Parent" style="rounded=0;whiteSpace=wrap;html=1;fillColor=#f8cecc;strokeColor=#b85450;" vertex="1" parent="1">
          <mxGeometry x="630" y="285" width="120" height="60" as="geometry" />
        </mxCell>
        <mxCell id="E2VKmL75WkODGK42_ocb-29" value="" style="endArrow=classic;html=1;rounded=0;" edge="1" parent="1">
          <mxGeometry relative="1" as="geometry">
            <mxPoint x="441" y="256.5" as="sourcePoint" />
            <mxPoint x="650" y="50" as="targetPoint" />
          </mxGeometry>
        </mxCell>
        <mxCell id="E2VKmL75WkODGK42_ocb-30" value="4. Send Extracted Content for Llm&lt;div&gt;And get&lt;/div&gt;&lt;div&gt;&lt;ul&gt;&lt;li style=&quot;text-align: left;&quot;&gt;Sentiment Category&lt;/li&gt;&lt;li style=&quot;text-align: left;&quot;&gt;Sentiment Score&lt;/li&gt;&lt;li style=&quot;text-align: left;&quot;&gt;Summarized Content&lt;/li&gt;&lt;/ul&gt;&lt;/div&gt;" style="edgeLabel;resizable=0;html=1;;align=center;verticalAlign=middle;" connectable="0" vertex="1" parent="E2VKmL75WkODGK42_ocb-29">
          <mxGeometry relative="1" as="geometry" />
        </mxCell>
        <mxCell id="E2VKmL75WkODGK42_ocb-31" value="" style="verticalLabelPosition=bottom;verticalAlign=top;html=1;shape=mxgraph.basic.donut;dx=25;fillColor=#f8cecc;strokeColor=#b85450;" vertex="1" parent="1">
          <mxGeometry x="650" y="10" width="100" height="100" as="geometry" />
        </mxCell>
        <mxCell id="E2VKmL75WkODGK42_ocb-33" value="LLM" style="text;html=1;align=center;verticalAlign=middle;resizable=0;points=[];autosize=1;strokeColor=none;fillColor=none;" vertex="1" parent="1">
          <mxGeometry x="675" y="15" width="50" height="30" as="geometry" />
        </mxCell>
        <mxCell id="E2VKmL75WkODGK42_ocb-34" value="" style="endArrow=classic;html=1;rounded=0;exitX=0.38;exitY=1.027;exitDx=0;exitDy=0;exitPerimeter=0;entryX=1;entryY=0.25;entryDx=0;entryDy=0;" edge="1" parent="1" source="E2VKmL75WkODGK42_ocb-31" target="E2VKmL75WkODGK42_ocb-14">
          <mxGeometry width="50" height="50" relative="1" as="geometry">
            <mxPoint x="380" y="270" as="sourcePoint" />
            <mxPoint x="430" y="220" as="targetPoint" />
            <Array as="points">
              <mxPoint x="600" y="280" />
            </Array>
          </mxGeometry>
        </mxCell>
        <mxCell id="E2VKmL75WkODGK42_ocb-36" value="Vector Store" style="shape=cylinder3;whiteSpace=wrap;html=1;boundedLbl=1;backgroundOutline=1;size=15;" vertex="1" parent="1">
          <mxGeometry x="710" y="400" width="60" height="80" as="geometry" />
        </mxCell>
        <mxCell id="E2VKmL75WkODGK42_ocb-40" value="" style="endArrow=classic;html=1;rounded=0;exitX=1;exitY=0.75;exitDx=0;exitDy=0;entryX=0;entryY=0.5;entryDx=0;entryDy=0;entryPerimeter=0;" edge="1" parent="1" source="E2VKmL75WkODGK42_ocb-14" target="E2VKmL75WkODGK42_ocb-36">
          <mxGeometry relative="1" as="geometry">
            <mxPoint x="350" y="310" as="sourcePoint" />
            <mxPoint x="450" y="310" as="targetPoint" />
          </mxGeometry>
        </mxCell>
        <mxCell id="E2VKmL75WkODGK42_ocb-41" value="6.Send Summarized Content to Vector Store&lt;div&gt;(all summarized content regardless of Sentiment Category)&lt;/div&gt;" style="edgeLabel;resizable=0;html=1;;align=center;verticalAlign=middle;" connectable="0" vertex="1" parent="E2VKmL75WkODGK42_ocb-40">
          <mxGeometry relative="1" as="geometry">
            <mxPoint x="53" y="-13" as="offset" />
          </mxGeometry>
        </mxCell>
        <mxCell id="E2VKmL75WkODGK42_ocb-43" value="" style="endArrow=classic;html=1;rounded=0;exitX=0;exitY=0;exitDx=0;exitDy=52.5;exitPerimeter=0;entryX=1;entryY=1;entryDx=0;entryDy=0;" edge="1" parent="1" source="E2VKmL75WkODGK42_ocb-36" target="E2VKmL75WkODGK42_ocb-46">
          <mxGeometry width="50" height="50" relative="1" as="geometry">
            <mxPoint x="380" y="380" as="sourcePoint" />
            <mxPoint x="304" y="420" as="targetPoint" />
            <Array as="points">
              <mxPoint x="500" y="440" />
            </Array>
          </mxGeometry>
        </mxCell>
        <mxCell id="E2VKmL75WkODGK42_ocb-44" value="7.Get old data for Further Analyse&amp;nbsp;" style="edgeLabel;html=1;align=center;verticalAlign=middle;resizable=0;points=[];" vertex="1" connectable="0" parent="E2VKmL75WkODGK42_ocb-43">
          <mxGeometry x="0.2443" y="-1" relative="1" as="geometry">
            <mxPoint as="offset" />
          </mxGeometry>
        </mxCell>
        <mxCell id="E2VKmL75WkODGK42_ocb-46" value="Old Content&lt;br&gt;&lt;div&gt;&amp;amp;&lt;/div&gt;&lt;div&gt;Summarized Content&lt;/div&gt;" style="rounded=0;whiteSpace=wrap;html=1;fillColor=#e1d5e7;strokeColor=#9673a6;" vertex="1" parent="1">
          <mxGeometry x="261" y="360" width="180" height="65" as="geometry" />
        </mxCell>
        <mxCell id="E2VKmL75WkODGK42_ocb-47" value="" style="endArrow=classic;html=1;rounded=0;exitX=0.5;exitY=1;exitDx=0;exitDy=0;entryX=1.013;entryY=0.66;entryDx=0;entryDy=0;entryPerimeter=0;" edge="1" parent="1" source="E2VKmL75WkODGK42_ocb-46" target="E2VKmL75WkODGK42_ocb-31">
          <mxGeometry width="50" height="50" relative="1" as="geometry">
            <mxPoint x="520" y="380" as="sourcePoint" />
            <mxPoint x="800" y="10" as="targetPoint" />
            <Array as="points">
              <mxPoint x="350" y="520" />
              <mxPoint x="800" y="520" />
              <mxPoint x="800" y="76" />
            </Array>
          </mxGeometry>
        </mxCell>
        <mxCell id="E2VKmL75WkODGK42_ocb-48" value="8.Ask for Sentiment" style="edgeLabel;html=1;align=center;verticalAlign=middle;resizable=0;points=[];" vertex="1" connectable="0" parent="E2VKmL75WkODGK42_ocb-47">
          <mxGeometry x="0.6334" y="1" relative="1" as="geometry">
            <mxPoint as="offset" />
          </mxGeometry>
        </mxCell>
        <mxCell id="E2VKmL75WkODGK42_ocb-54" value="10.Notify Parent&amp;nbsp;" style="edgeLabel;html=1;align=center;verticalAlign=middle;resizable=0;points=[];" vertex="1" connectable="0" parent="E2VKmL75WkODGK42_ocb-47">
          <mxGeometry x="-0.1914" relative="1" as="geometry">
            <mxPoint as="offset" />
          </mxGeometry>
        </mxCell>
        <mxCell id="E2VKmL75WkODGK42_ocb-49" value="" style="endArrow=classic;html=1;rounded=0;exitX=1.013;exitY=0.487;exitDx=0;exitDy=0;exitPerimeter=0;" edge="1" parent="1" source="E2VKmL75WkODGK42_ocb-31" target="E2VKmL75WkODGK42_ocb-51">
          <mxGeometry width="50" height="50" relative="1" as="geometry">
            <mxPoint x="790" y="-50" as="sourcePoint" />
            <mxPoint x="319" y="470" as="targetPoint" />
            <Array as="points">
              <mxPoint x="840" y="59" />
              <mxPoint x="840" y="540" />
              <mxPoint x="300" y="540" />
            </Array>
          </mxGeometry>
        </mxCell>
        <mxCell id="E2VKmL75WkODGK42_ocb-50" value="9,Sentiment + Score" style="edgeLabel;html=1;align=center;verticalAlign=middle;resizable=0;points=[];" vertex="1" connectable="0" parent="E2VKmL75WkODGK42_ocb-49">
          <mxGeometry x="0.5178" y="-1" relative="1" as="geometry">
            <mxPoint as="offset" />
          </mxGeometry>
        </mxCell>
        <mxCell id="E2VKmL75WkODGK42_ocb-51" value="Sentiment + Score for Time Series" style="rounded=0;whiteSpace=wrap;html=1;fillColor=#e1d5e7;strokeColor=#9673a6;" vertex="1" parent="1">
          <mxGeometry x="259" y="440" width="81" height="60" as="geometry" />
        </mxCell>
        <mxCell id="E2VKmL75WkODGK42_ocb-52" value="" style="endArrow=none;dashed=1;html=1;rounded=0;" edge="1" parent="1">
          <mxGeometry width="50" height="50" relative="1" as="geometry">
            <mxPoint x="450" y="560" as="sourcePoint" />
            <mxPoint x="450" y="560" as="targetPoint" />
            <Array as="points">
              <mxPoint x="450" y="160" />
              <mxPoint x="230" y="160" />
              <mxPoint x="230" y="560" />
            </Array>
          </mxGeometry>
        </mxCell>
        <mxCell id="E2VKmL75WkODGK42_ocb-53" value="" style="endArrow=classic;html=1;rounded=0;exitX=1;exitY=0.75;exitDx=0;exitDy=0;" edge="1" parent="1" source="E2VKmL75WkODGK42_ocb-51">
          <mxGeometry width="50" height="50" relative="1" as="geometry">
            <mxPoint x="520" y="400" as="sourcePoint" />
            <mxPoint x="750" y="320" as="targetPoint" />
            <Array as="points">
              <mxPoint x="790" y="490" />
              <mxPoint x="790" y="320" />
            </Array>
          </mxGeometry>
        </mxCell>
      </root>
    </mxGraphModel>
  </diagram>
</mxfile>
